<?xml version="1.0" encoding="UTF-8" standalone="no"?>
<!-- Created with matplotlib (http://matplotlib.org/) -->

<svg
   xmlns:dc="http://purl.org/dc/elements/1.1/"
   xmlns:cc="http://creativecommons.org/ns#"
   xmlns:rdf="http://www.w3.org/1999/02/22-rdf-syntax-ns#"
   xmlns:svg="http://www.w3.org/2000/svg"
   xmlns="http://www.w3.org/2000/svg"
   xmlns:xlink="http://www.w3.org/1999/xlink"
   xmlns:sodipodi="http://sodipodi.sourceforge.net/DTD/sodipodi-0.dtd"
   xmlns:inkscape="http://www.inkscape.org/namespaces/inkscape"
   height="360pt"
   version="1.1"
   viewBox="0 0 1080 360"
   width="1080pt"
   id="svg7149"
   inkscape:version="0.91 r13725"
   sodipodi:docname="LJ.svg">
  <metadata
     id="metadata7315">
    <rdf:RDF>
      <cc:Work
         rdf:about="">
        <dc:format>image/svg+xml</dc:format>
        <dc:type
           rdf:resource="http://purl.org/dc/dcmitype/StillImage" />
        <dc:title></dc:title>
      </cc:Work>
    </rdf:RDF>
  </metadata>
  <sodipodi:namedview
     pagecolor="#ffffff"
     bordercolor="#666666"
     borderopacity="1"
     objecttolerance="10"
     gridtolerance="10"
     guidetolerance="10"
     inkscape:pageopacity="0"
     inkscape:pageshadow="2"
     inkscape:window-width="2560"
     inkscape:window-height="1391"
     id="namedview7313"
     showgrid="false"
     inkscape:zoom="2"
     inkscape:cx="527.09741"
     inkscape:cy="259.75"
     inkscape:window-x="0"
     inkscape:window-y="1"
     inkscape:window-maximized="1"
     inkscape:current-layer="svg7149" />
  <defs
     id="defs7151">
    <marker
       inkscape:isstock="true"
       style="overflow:visible"
       id="marker8255"
       refX="0.0"
       refY="0.0"
       orient="auto"
       inkscape:stockid="TriangleOutM">
      <path
         transform="scale(0.4)"
         style="fill-rule:evenodd;stroke:#383d65;stroke-width:1pt;stroke-opacity:1;fill:#383d65;fill-opacity:1"
         d="M 5.77,0.0 L -2.88,5.0 L -2.88,-5.0 L 5.77,0.0 z "
         id="path8257" />
    </marker>
    <marker
       inkscape:isstock="true"
       style="overflow:visible"
       id="marker8209"
       refX="0.0"
       refY="0.0"
       orient="auto"
       inkscape:stockid="TriangleInM">
      <path
         transform="scale(-0.4)"
         style="fill-rule:evenodd;stroke:#383d65;stroke-width:1pt;stroke-opacity:1;fill:#383d65;fill-opacity:1"
         d="M 5.77,0.0 L -2.88,5.0 L -2.88,-5.0 L 5.77,0.0 z "
         id="path8211" />
    </marker>
    <marker
       inkscape:stockid="TriangleOutM"
       orient="auto"
       refY="0.0"
       refX="0.0"
       id="TriangleOutM"
       style="overflow:visible"
       inkscape:isstock="true"
       inkscape:collect="always">
      <path
         id="path5561"
         d="M 5.77,0.0 L -2.88,5.0 L -2.88,-5.0 L 5.77,0.0 z "
         style="fill-rule:evenodd;stroke:#383d65;stroke-width:1pt;stroke-opacity:1;fill:#383d65;fill-opacity:1"
         transform="scale(0.4)" />
    </marker>
    <marker
       inkscape:stockid="TriangleInM"
       orient="auto"
       refY="0.0"
       refX="0.0"
       id="TriangleInM"
       style="overflow:visible"
       inkscape:isstock="true"
       inkscape:collect="always">
      <path
         id="path5552"
         d="M 5.77,0.0 L -2.88,5.0 L -2.88,-5.0 L 5.77,0.0 z "
         style="fill-rule:evenodd;stroke:#383d65;stroke-width:1pt;stroke-opacity:1;fill:#383d65;fill-opacity:1"
         transform="scale(-0.4)" />
    </marker>
    <style
       type="text/css"
       id="style7153">
*{stroke-linecap:butt;stroke-linejoin:round;stroke-miterlimit:100000;}
  </style>
  </defs>
  <g
     id="figure_1">
    <g
       id="patch_1">
      <path
         d="M 0 360  L 1080 360  L 1080 0  L 0 0  z "
         style="fill:#ffffff;"
         id="path7157" />
    </g>
    <g
       id="axes_1">
      <g
         id="patch_2">
        <path
           d="M 65.643918 282.329572  L 1060.116044 282.329572  L 1060.116044 12.96  L 65.643918 12.96  z "
           style="fill:#ffffff;"
           id="path7161" />
      </g>
      <g
         id="line2d_1">
        <path
           clip-path="url(#p429642294c)"
           d="M 384.899857 -1  L 386.682217 27.303449  L 388.722925 56.505078  L 390.763634 82.650874  L 392.804343 106.031009  L 394.845051 126.908005  L 396.88576 145.519455  L 398.926468 162.08046  L 400.967177 176.78583  L 403.007885 189.812045  L 405.048594 201.319031  L 407.089303 211.451753  L 409.130011 220.341644  L 411.17072 228.107904  L 413.211428 234.858656  L 415.252137 240.691996  L 417.292845 245.696943  L 419.333554 249.954287  L 421.374263 253.537364  L 423.414971 256.512746  L 425.45568 258.940875  L 427.496388 260.876631  L 429.537097 262.369843  L 431.577805 263.465756  L 433.618514 264.205453  L 435.659223 264.626234  L 437.699931 264.761964  L 439.74064 264.643386  L 441.781348 264.298402  L 443.822057 263.752334  L 446.543002 262.750842  L 449.263946 261.481105  L 451.984891 259.985805  L 455.386072 257.856057  L 459.467489 255.000001  L 464.229142 251.366724  L 470.351268 246.392871  L 483.275756 235.499754  L 492.799062 227.621272  L 500.28166 221.70049  L 507.084022 216.582809  L 513.886384 211.743802  L 520.688746 207.194866  L 527.491108 202.937729  L 534.29347 198.967442  L 541.095832 195.274575  L 547.898194 191.846815  L 554.700556 188.670131  L 561.502918 185.729605  L 568.985516 182.749646  L 576.468114 180.017003  L 583.950712 177.512261  L 592.113546 175.018024  L 600.27638 172.750454  L 609.119451 170.525492  L 618.642757 168.371549  L 628.166064 166.441924  L 638.369607 164.595424  L 649.253386 162.848172  L 660.817401 161.211842  L 673.741889 159.615466  L 687.346613 158.162376  L 702.311809 156.792055  L 718.637477 155.525367  L 736.323618 154.375166  L 756.050468 153.314037  L 778.498262 152.333894  L 803.667001 151.459907  L 832.917157 150.671525  L 866.928966 149.981492  L 907.743138 149.381428  L 958.080616 148.871949  L 1022.703054 148.452255  L 1060.116044 148.286523  L 1060.116044 148.286523  "
           style="fill:none;stroke:#49848b;stroke-linecap:square;stroke-width:5.0;"
           id="path7164" />
      </g>
      <g
         id="patch_3">
        <path
           d="M 65.643918 12.96  L 1060.116044 12.96  "
           style="fill:none;stroke:#000000;stroke-linecap:square;stroke-linejoin:miter;"
           id="path7167" />
      </g>
      <g
         id="patch_4">
        <path
           d="M 1060.116044 282.329572  L 1060.116044 12.96  "
           style="fill:none;stroke:#000000;stroke-linecap:square;stroke-linejoin:miter;"
           id="path7170" />
      </g>
      <g
         id="patch_5">
        <path
           d="M 65.643918 282.329572  L 1060.116044 282.329572  "
           style="fill:none;stroke:#000000;stroke-linecap:square;stroke-linejoin:miter;"
           id="path7173" />
      </g>
      <g
         id="patch_6">
        <path
           d="M 65.643918 282.329572  L 65.643918 12.96  "
           style="fill:none;stroke:#000000;stroke-linecap:square;stroke-linejoin:miter;"
           id="path7176" />
      </g>
      <g
         id="matplotlib.axis_1">
        <g
           id="xtick_1">
          <g
             id="line2d_2">
            <defs
               id="defs7181">
              <path
                 d="M 0 0  L 0 -4  "
                 id="m4340401aad"
                 style="stroke:#000000;stroke-width:0.5;" />
            </defs>
            <g
               id="g7184">
              <use
                 style="stroke:#000000;stroke-width:0.5;"
                 x="65.643917852"
                 xlink:href="#m4340401aad"
                 y="282.329572064"
                 id="use7186" />
            </g>
          </g>
          <g
             id="line2d_3">
            <defs
               id="defs7189">
              <path
                 d="M 0 0  L 0 4  "
                 id="m9e57c783a3"
                 style="stroke:#000000;stroke-width:0.5;" />
            </defs>
            <g
               id="g7192">
              <use
                 style="stroke:#000000;stroke-width:0.5;"
                 x="65.643917852"
                 xlink:href="#m9e57c783a3"
                 y="12.96"
                 id="use7194" />
            </g>
          </g>
          <g
             id="text_1">
            <!-- 0 -->
            <defs
               id="defs7197">
              <path
                 d="M 28.40625 71  C 14.40625 71 4.203125 55.6875 4.203125 34.75  C 4.203125 14.125 14.09375 -1 27.59375 -1  C 41.59375 -1 51.40625 13.625 51.40625 34.4375  C 51.40625 45.0625 49.203125 53.875 45 60.78125  C 41.09375 67.09375 34.703125 71 28.40625 71  M 27.703125 66.703125  C 31 66.703125 34.203125 64.5 36.59375 60.5  C 39.296875 55.875 40.203125 49.96875 40.203125 36.25  C 40.203125 22.21875 39.5 15.625 37.5 11.203125  C 35.203125 6.296875 31.59375 3.296875 27.796875 3.296875  C 24.5 3.296875 21.296875 5.5 18.90625 9.5  C 16.09375 14.21875 15.296875 20.53125 15.296875 36.859375  C 15.296875 48.484375 16 54.375 18 58.6875  C 20.296875 63.796875 23.90625 66.703125 27.703125 66.703125  "
                 id="Century_Schoolbook_L_Roman-48" />
            </defs>
            <g
               transform="translate(58.719962032 304.810090068)scale(0.25 -0.25)"
               id="g7200">
              <use
                 transform="scale(0.996264009963)"
                 xlink:href="#Century_Schoolbook_L_Roman-48"
                 id="use7202" />
            </g>
          </g>
        </g>
        <g
           id="xtick_2">
          <g
             id="line2d_4">
            <g
               id="g7206">
              <use
                 style="stroke:#000000;stroke-width:0.5;"
                 x="397.134626628"
                 xlink:href="#m4340401aad"
                 y="282.329572064"
                 id="use7208" />
            </g>
          </g>
          <g
             id="line2d_5">
            <g
               id="g7211">
              <use
                 style="stroke:#000000;stroke-width:0.5;"
                 x="397.134626628"
                 xlink:href="#m9e57c783a3"
                 y="12.96"
                 id="use7213" />
            </g>
          </g>
          <g
             id="text_2">
            <!-- 1 -->
            <defs
               id="defs7216">
              <path
                 d="M 32.203125 70.5  C 28.796875 66.234375 19.59375 63 10.40625 63  L 10.40625 58.59375  L 19.203125 58.59375  C 25 58.59375 25.40625 58.203125 25.40625 52.3125  L 25.40625 12.28125  L 25.40625 9.375  C 25.40625 5.1875 24.5 4.6875 16.5 4.6875  L 10 4.6875  L 10 0  L 49.59375 0  L 49.59375 4.6875  L 44.09375 4.6875  C 38.796875 4.6875 36.59375 5.09375 35.796875 6.09375  C 35.09375 6.78125 35.09375 6.78125 35.09375 12.3125  L 35.09375 53.671875  C 35.09375 58.578125 35.296875 63.375 35.796875 70.5  z "
                 id="Century_Schoolbook_L_Roman-49" />
            </defs>
            <g
               transform="translate(390.210670808 304.810090068)scale(0.25 -0.25)"
               id="g7219">
              <use
                 transform="scale(0.996264009963)"
                 xlink:href="#Century_Schoolbook_L_Roman-49"
                 id="use7221" />
            </g>
          </g>
        </g>
        <g
           id="xtick_3">
          <g
             id="line2d_6">
            <g
               id="g7225">
              <use
                 style="stroke:#000000;stroke-width:0.5;"
                 x="728.625335404"
                 xlink:href="#m4340401aad"
                 y="282.329572064"
                 id="use7227" />
            </g>
          </g>
          <g
             id="line2d_7">
            <g
               id="g7230">
              <use
                 style="stroke:#000000;stroke-width:0.5;"
                 x="728.625335404"
                 xlink:href="#m9e57c783a3"
                 y="12.96"
                 id="use7232" />
            </g>
          </g>
          <g
             id="text_3">
            <!-- 2 -->
            <defs
               id="defs7235">
              <path
                 d="M 50.5 21.5625  L 46.09375 21.5625  L 45.09375 16.46875  C 43.796875 10.078125 43 9.375 36.796875 9.375  L 14.40625 9.375  C 21.296875 16.5625 23.59375 18.65625 30 23.65625  C 39.09375 30.65625 43 34.15625 45.296875 37.140625  C 48.5 41.53125 50.09375 46.03125 50.09375 50.8125  C 50.09375 62.109375 40.59375 70.296875 27.59375 70.296875  C 14.90625 70.296875 5.09375 62.109375 5.09375 51.515625  C 5.09375 45.234375 8.296875 40.9375 13.09375 40.9375  C 16.796875 40.9375 19.296875 43.4375 19.296875 47.03125  C 19.296875 49.53125 17.90625 51.828125 15.703125 52.734375  C 12 54.328125 11.796875 54.421875 11.796875 55.71875  C 11.796875 57.21875 12.796875 59.515625 14.203125 61.21875  C 16.703125 64.203125 20.90625 66 25.59375 66  C 33.796875 66 38.796875 60.90625 38.796875 52.53125  C 38.796875 45.125 35.296875 38.4375 27 29.65625  L 21.09375 23.46875  C 17.59375 19.78125 15 16.96875 13.296875 15.078125  C 9.703125 10.875 7.90625 8.578125 3.5 2.796875  L 3.5 0  L 48.59375 0  z "
                 id="Century_Schoolbook_L_Roman-50" />
            </defs>
            <g
               transform="translate(721.701379584 304.810090068)scale(0.25 -0.25)"
               id="g7238">
              <use
                 transform="scale(0.996264009963)"
                 xlink:href="#Century_Schoolbook_L_Roman-50"
                 id="use7240" />
            </g>
          </g>
        </g>
        <g
           id="xtick_4">
          <g
             id="line2d_8">
            <g
               id="g7244">
              <use
                 style="stroke:#000000;stroke-width:0.5;"
                 x="1060.11604418"
                 xlink:href="#m4340401aad"
                 y="282.329572064"
                 id="use7246" />
            </g>
          </g>
          <g
             id="line2d_9">
            <g
               id="g7249">
              <use
                 style="stroke:#000000;stroke-width:0.5;"
                 x="1060.11604418"
                 xlink:href="#m9e57c783a3"
                 y="12.96"
                 id="use7251" />
            </g>
          </g>
          <g
             id="text_4">
            <!-- 3 -->
            <defs
               id="defs7254">
              <path
                 d="M 34.59375 37.359375  C 36 37.859375 36.203125 37.859375 36.90625 38.15625  C 43.90625 41.0625 47.90625 46.671875 47.90625 53.765625  C 47.90625 64.1875 39.90625 71 27.5 71  C 15.796875 71 6.90625 63.96875 6.90625 54.71875  C 6.90625 50.546875 9.703125 47.59375 13.5 47.59375  C 17 47.59375 19.40625 50.046875 19.40625 53.71875  C 19.40625 55.875 18.59375 57.296875 16.296875 58.9375  C 15.296875 59.640625 15 60.15625 15 60.78125  C 15 63.640625 20.90625 66.703125 26.5 66.703125  C 33.703125 66.703125 37.5 62.125 37.5 53.46875  C 37.5 43.984375 33.703125 39 26.5 39  C 25.59375 39 24 39 22.5 39  C 21.703125 39 20.90625 39 20.296875 39  C 18.203125 39 17.09375 38.125 17.09375 36.40625  C 17.09375 34.78125 18.203125 34.015625 20.203125 34.015625  C 20.5 34.015625 21.296875 34.015625 22.59375 34.015625  C 26.40625 34.015625 26.5 34.015625 27.296875 34.015625  C 34.703125 34.015625 38.703125 28.828125 38.703125 19.140625  C 38.703125 9.0625 33.59375 3.296875 24.703125 3.296875  C 18.40625 3.296875 11.59375 6.640625 11.59375 9.6875  C 11.59375 10.59375 11.796875 10.765625 13.796875 11.875  C 16.59375 13.53125 17.703125 15.21875 17.703125 17.65625  C 17.703125 21.203125 15 23.875 11.296875 23.875  C 7.09375 23.875 4.203125 20.328125 4.203125 15.1875  C 4.203125 5.609375 13.09375 -1 25.90625 -1  C 40.296875 -1 49.796875 7.015625 49.796875 19.328125  C 49.796875 28.734375 44.90625 34.4375 34.59375 37.359375  "
                 id="Century_Schoolbook_L_Roman-51" />
            </defs>
            <g
               transform="translate(1053.19208836 304.810090068)scale(0.25 -0.25)"
               id="g7257">
              <use
                 transform="scale(0.996264009963)"
                 xlink:href="#Century_Schoolbook_L_Roman-51"
                 id="use7259" />
            </g>
          </g>
        </g>
        <g
           id="text_5">
          <!-- $r$ -->
          <defs
             id="defs7262">
            <path
               d="M 38.90625 40.8125  C 35.796875 40.21875 34.203125 38.015625 34.203125 35.828125  C 34.203125 33.421875 36.09375 32.625 37.5 32.625  C 40.296875 32.625 42.59375 35.03125 42.59375 38.015625  C 42.59375 41.21875 39.5 44 34.5 44  C 30.5 44 25.90625 42.203125 21.703125 36.125  C 21 41.40625 17 44 13 44  C 9.09375 44 7.09375 41.015625 5.90625 38.8125  C 4.203125 35.21875 2.703125 29.234375 2.703125 28.734375  C 2.703125 28.34375 3.09375 27.84375 3.796875 27.84375  C 4.59375 27.84375 4.703125 27.9375 5.296875 30.234375  C 6.796875 36.21875 8.703125 42.015625 12.703125 42.015625  C 15.09375 42.015625 15.796875 40.3125 15.796875 37.421875  C 15.796875 35.21875 14.796875 31.328125 14.09375 28.234375  L 11.296875 17.46875  C 10.90625 15.5625 9.796875 11.078125 9.296875 9.28125  C 8.59375 6.6875 7.5 2 7.5 1.5  C 7.5 0.09375 8.59375 -1 10.09375 -1  C 11.203125 -1 13.09375 -0.296875 13.703125 1.703125  C 14 2.5 17.703125 17.5625 18.296875 19.859375  C 18.796875 22.046875 19.40625 24.15625 19.90625 26.34375  C 20.296875 27.734375 20.703125 29.34375 21 30.640625  C 21.296875 31.53125 24 36.421875 26.5 38.625  C 27.703125 39.71875 30.296875 42.015625 34.40625 42.015625  C 36 42.015625 37.59375 41.71875 38.90625 40.8125  "
               id="CMMI12-114" />
          </defs>
          <g
             transform="translate(555.186830209 340.414972029)scale(0.35 -0.35)"
             id="g7265">
            <use
               transform="scale(0.996264009963)"
               xlink:href="#CMMI12-114"
               id="use7267" />
          </g>
        </g>
      </g>
      <g
         id="matplotlib.axis_2">
        <g
           id="ytick_1">
          <g
             id="line2d_10">
            <defs
               id="defs7272">
              <path
                 d="M 0 0  L 4 0  "
                 id="m26fed228f9"
                 style="stroke:#000000;stroke-width:0.5;" />
            </defs>
            <g
               id="g7275">
              <use
                 style="stroke:#000000;stroke-width:0.5;"
                 x="65.643917852"
                 xlink:href="#m26fed228f9"
                 y="147.644786032"
                 id="use7277" />
            </g>
          </g>
          <g
             id="line2d_11">
            <defs
               id="defs7280">
              <path
                 d="M 0 0  L -4 0  "
                 id="mc37484a7b5"
                 style="stroke:#000000;stroke-width:0.5;" />
            </defs>
            <g
               id="g7283">
              <use
                 style="stroke:#000000;stroke-width:0.5;"
                 x="1060.11604418"
                 xlink:href="#mc37484a7b5"
                 y="147.644786032"
                 id="use7285" />
            </g>
          </g>
          <g
             id="text_6">
            <!-- 0 -->
            <g
               transform="translate(47.7960062121 154.518963615)scale(0.25 -0.25)"
               id="g7288">
              <use
                 transform="scale(0.996264009963)"
                 xlink:href="#Century_Schoolbook_L_Roman-48"
                 id="use7290" />
            </g>
          </g>
        </g>
        <g
           id="text_7">
          <!-- $V(r)$ -->
          <defs
             id="defs7293">
            <path
               d="M 26.296875 24.703125  C 26.296875 31.875 25.59375 44.015625 19.59375 56.859375  C 14.796875 67.234375 6.59375 74.5 5.40625 74.5  C 5.09375 74.5 4.703125 74.390625 4.703125 73.890625  C 4.703125 73.703125 4.796875 73.59375 4.90625 73.390625  C 9.703125 68.40625 21.90625 55.75 21.90625 24.75  C 21.90625 -6.359375 9.796875 -19.015625 4.90625 -24.015625  C 4.796875 -24.203125 4.703125 -24.3125 4.703125 -24.5  C 4.703125 -25 5.09375 -25 5.40625 -25  C 6.5 -25 15 -17.625 19.90625 -6.65625  C 24.90625 4.390625 26.296875 15.140625 26.296875 24.703125  "
               id="CMR17-41" />
            <path
               d="M 30.59375 -24.390625  C 30.59375 -24.296875 30.59375 -24.09375 30.296875 -23.796875  C 25.703125 -19.125 13.40625 -6.359375 13.40625 24.703125  C 13.40625 55.765625 25.5 68.421875 30.40625 73.390625  C 30.40625 73.5 30.59375 73.703125 30.59375 74  C 30.59375 74.296875 30.296875 74.5 29.90625 74.5  C 28.796875 74.5 20.296875 67.125 15.40625 56.15625  C 10.40625 45.109375 9 34.359375 9 24.8125  C 9 17.625 9.703125 5.484375 15.703125 -7.359375  C 20.5 -17.734375 28.703125 -25 29.90625 -25  C 30.40625 -25 30.59375 -24.796875 30.59375 -24.390625  "
               id="CMR17-40" />
            <path
               d="M 61.90625 56.875  C 65.296875 62.25 68.40625 64.625 73.5 65.03125  C 74.5 65.125 75.296875 65.125 75.296875 66.90625  C 75.296875 67.3125 75.09375 67.90625 74.203125 67.90625  C 72.40625 67.90625 68.09375 67.90625 66.296875 67.90625  C 63.40625 67.90625 60.40625 67.90625 57.59375 67.90625  C 56.796875 67.90625 55.796875 67.90625 55.796875 66.03125  C 55.796875 65.125 56.703125 65.03125 57.09375 65.03125  C 60.796875 64.734375 61.203125 62.953125 61.203125 61.75  C 61.203125 60.265625 59.796875 57.96875 59.703125 57.875  L 28.296875 8.4375  L 21.296875 62.015625  C 21.296875 65 26.5 65 27.59375 65  C 29.09375 65 30 65 30 66.90625  C 30 67.90625 28.90625 67.90625 28.59375 67.90625  C 26.90625 67.90625 24.90625 67.90625 23.203125 67.90625  L 17.59375 67.90625  C 10.296875 67.90625 7.296875 67.90625 7.203125 67.90625  C 6.59375 67.90625 5.40625 67.90625 5.40625 66.09375  C 5.40625 65 6.09375 65 7.703125 65  C 12.796875 65 13.09375 64.09375 13.40625 61.625  L 21.40625 0.375  C 21.703125 -1.703125 21.703125 -2 23.09375 -2  C 24.296875 -2 24.796875 -1.703125 25.796875 -0.125  z "
               id="CMMI12-86" />
          </defs>
          <g
             transform="translate(35.3490330693 177.011695643)rotate(-90.0)scale(0.3 -0.3)"
             id="g7298">
            <use
               transform="scale(0.996264009963)"
               xlink:href="#CMMI12-86"
               id="use7300" />
            <use
               transform="translate(78.5473207163 0.0)scale(0.996264009963)"
               xlink:href="#CMR17-40"
               id="use7302" />
            <use
               transform="translate(113.828088516 0.0)scale(0.996264009963)"
               xlink:href="#CMMI12-114"
               id="use7304" />
            <use
               transform="translate(160.498700552 0.0)scale(0.996264009963)"
               xlink:href="#CMR17-41"
               id="use7306" />
          </g>
        </g>
      </g>
    </g>
  </g>
  <defs
     id="defs7308">
    <clipPath
       id="p429642294c">
      <rect
         height="269.369572064"
         width="994.472126328"
         x="65.643917852"
         y="12.96"
         id="rect7311" />
    </clipPath>
  </defs>
  <path
     style="fill:none;fill-rule:evenodd;stroke:#4d4d4d;stroke-width:2.39467168;stroke-linecap:butt;stroke-linejoin:miter;stroke-miterlimit:100;stroke-dasharray:2.3946716, 2.3946716;stroke-dashoffset:2.27999997;stroke-opacity:1"
     d="m 71.068956,147.7336 988.131044,0"
     id="path7449"
     inkscape:connector-curvature="0"
     sodipodi:nodetypes="cc" />
  <path
     style="fill:none;fill-rule:evenodd;stroke:#383d65;stroke-width:3.19999766;stroke-linecap:butt;stroke-linejoin:miter;stroke-miterlimit:100;stroke-dasharray:none;stroke-opacity:1;marker-start:url(#TriangleInM);marker-end:url(#TriangleOutM)"
     d="m 74.73502,147.7336 311.48072,0"
     id="path8027"
     inkscape:connector-curvature="0"
     sodipodi:nodetypes="cc" />
  <path
     style="fill:none;fill-rule:evenodd;stroke:#383d65;stroke-width:3.2;stroke-linecap:butt;stroke-linejoin:miter;stroke-miterlimit:100;stroke-dasharray:none;stroke-opacity:1;marker-start:url(#marker8209);marker-end:url(#marker8255)"
     d="m 437.75486,253.4191 -0.16652,-95.8126"
     id="path8141"
     inkscape:connector-curvature="0"
     sodipodi:nodetypes="cc" />
  <text
     xml:space="preserve"
     style="font-style:normal;font-weight:normal;font-size:32px;line-height:125%;font-family:sans-serif;letter-spacing:0px;word-spacing:0px;fill:#000000;fill-opacity:1;stroke:none;stroke-width:1px;stroke-linecap:butt;stroke-linejoin:miter;stroke-miterlimit:100000;stroke-opacity:1"
     x="213.2"
     y="133.2"
     id="text8901"
     sodipodi:linespacing="125%"><tspan
       sodipodi:role="line"
       id="tspan8903"
       style="font-style:normal;font-variant:normal;font-weight:normal;font-stretch:normal;font-size:22px;line-height:125%;font-family:sans-serif;-inkscape-font-specification:'sans-serif, Normal';text-align:start;writing-mode:lr-tb;text-anchor:start;stroke-linecap:butt;stroke-linejoin:round;stroke-miterlimit:100000"
       x="213.2"
       y="133.2">$\theta$</tspan></text>
  <text
     xml:space="preserve"
     style="font-style:normal;font-weight:normal;font-size:32px;line-height:125%;font-family:sans-serif;letter-spacing:0px;word-spacing:0px;fill:#000000;fill-opacity:1;stroke:none;stroke-width:1px;stroke-linecap:butt;stroke-linejoin:miter;stroke-miterlimit:100000;stroke-opacity:1"
     x="447.20001"
     y="208.8"
     id="text8926"
     sodipodi:linespacing="125%"><tspan
       sodipodi:role="line"
       id="tspan8928"
       style="font-style:normal;font-variant:normal;font-weight:normal;font-stretch:normal;font-size:22px;line-height:125%;font-family:sans-serif;-inkscape-font-specification:'sans-serif, Normal';text-align:start;writing-mode:lr-tb;text-anchor:start;stroke-linecap:butt;stroke-linejoin:round;stroke-miterlimit:100000"
       x="447.20001"
       y="208.8">$\epsilon$</tspan></text>
</svg>
