<?xml version="1.0" encoding="UTF-8" standalone="no"?>
<!-- Created with Inkscape (http://www.inkscape.org/) -->

<svg
   xmlns:dc="http://purl.org/dc/elements/1.1/"
   xmlns:cc="http://creativecommons.org/ns#"
   xmlns:rdf="http://www.w3.org/1999/02/22-rdf-syntax-ns#"
   xmlns:svg="http://www.w3.org/2000/svg"
   xmlns="http://www.w3.org/2000/svg"
   xmlns:sodipodi="http://sodipodi.sourceforge.net/DTD/sodipodi-0.dtd"
   xmlns:inkscape="http://www.inkscape.org/namespaces/inkscape"
   width="210mm"
   height="297mm"
   viewBox="0 0 744.09448819 1052.3622047"
   id="svg2"
   version="1.1"
   inkscape:version="0.91 r13725"
   sodipodi:docname="two.svg">
  <defs
     id="defs4" />
  <sodipodi:namedview
     id="base"
     pagecolor="#ffffff"
     bordercolor="#666666"
     borderopacity="1.0"
     inkscape:pageopacity="0.0"
     inkscape:pageshadow="2"
     inkscape:zoom="1.979899"
     inkscape:cx="516.46762"
     inkscape:cy="223.69109"
     inkscape:document-units="px"
     inkscape:current-layer="layer1"
     showgrid="false"
     inkscape:window-width="2560"
     inkscape:window-height="1391"
     inkscape:window-x="0"
     inkscape:window-y="1"
     inkscape:window-maximized="1" />
  <metadata
     id="metadata7">
    <rdf:RDF>
      <cc:Work
         rdf:about="">
        <dc:format>image/svg+xml</dc:format>
        <dc:type
           rdf:resource="http://purl.org/dc/dcmitype/StillImage" />
        <dc:title></dc:title>
      </cc:Work>
    </rdf:RDF>
  </metadata>
  <g
     inkscape:label="Layer 1"
     inkscape:groupmode="layer"
     id="layer1">
    <path
       style="fill:#8ba6c0;fill-opacity:1;fill-rule:evenodd;stroke:#333333;stroke-width:3;stroke-linecap:butt;stroke-linejoin:miter;stroke-miterlimit:4;stroke-dasharray:none;stroke-opacity:1"
       d="m 38.391,665.4119 c 47.110082,-15.36044 52.773411,59.74896 93.69524,59.7463 49.16488,-0.003 45.0431,-49.40153 112.1727,-30.22164 34.49992,9.85712 32.68256,26.06568 60.81221,27.54896 12.62702,0.66582 27.1551,-5.66986 39.88988,-18.31461 13.3201,-13.22594 21.95547,-36.45547 36.37663,-36.73871 19.77623,-0.38842 22.43453,28.26795 40.91118,29.29443 26.61012,1.47834 55.16207,-22.2674 78.28682,-19.69798 19.41514,2.15724 27.02304,22.7632 38.98617,37.60861 6.99656,8.68224 14.94708,10.92984 28.15613,10.82854 17.50177,0.20922 22.86987,-1.74258 36.58903,-7.6033 18.78905,-8.02653 26.57262,-9.43175 43.8289,-17.03834 16.75502,-4.27153 34.67619,-14.92346 83.76511,-9.14829 l 0,-104.04561 -693.47,0 z"
       id="path4170"
       inkscape:connector-curvature="0"
       sodipodi:nodetypes="csssssssscsccccc" />
    <rect
       style="fill:#8ba6c0;fill-opacity:1;stroke:#333333;stroke-opacity:1;stroke-width:3;stroke-miterlimit:4;stroke-dasharray:none"
       id="rect4174"
       width="694.46997"
       height="109.41321"
       x="38.390999"
       y="725.26117" />
    <path
       style="fill:none;fill-rule:evenodd;stroke:#c60000;stroke-width:3.1;stroke-linecap:butt;stroke-linejoin:miter;stroke-miterlimit:4;stroke-dasharray:none;stroke-opacity:1"
       d="m 558.02834,725.22043 c 19.01636,0.0959 10.58525,0.19526 22.85822,1e-5"
       id="path4239"
       inkscape:connector-curvature="0"
       sodipodi:nodetypes="cc" />
    <path
       style="fill:none;fill-rule:evenodd;stroke:#ff0000;stroke-width:3.0999999;stroke-linecap:butt;stroke-linejoin:miter;stroke-miterlimit:4;stroke-dasharray:none;stroke-opacity:1"
       d="m 126.1428,725.19905 13.8896,-0.12627"
       id="path5639"
       inkscape:connector-curvature="0"
       sodipodi:nodetypes="cc" />
  </g>
</svg>
